<svg width="37" height="37" viewBox="0 0 37 37" fill="none" xmlns="http://www.w3.org/2000/svg">
<path d="M32.3519 19.2492C32.2074 21.9258 31.2907 24.5032 29.7127 26.6699C28.1346 28.8366 25.9628 30.4998 23.4596 31.4585C20.9565 32.4172 18.2292 32.6303 15.6075 32.0721C12.9858 31.5139 10.582 30.2082 8.68649 28.3129C6.79102 26.4177 5.4851 24.0139 4.9266 21.3923C4.3681 18.7707 4.58093 16.0434 5.53935 13.5402C6.49778 11.0369 8.16077 8.86486 10.3273 7.28657C12.4938 5.70829 15.0712 4.79134 17.7477 4.64657C18.3721 4.61265 18.6989 5.35573 18.3674 5.88453C17.2588 7.6583 16.7841 9.75545 17.0208 11.8337C17.2575 13.912 18.1916 15.8487 19.6706 17.3278C21.1497 18.8069 23.0864 19.741 25.1647 19.9777C27.243 20.2144 29.3402 19.7397 31.1139 18.631C31.6443 18.2996 32.3858 18.6249 32.3519 19.2492Z" stroke="currentColor" stroke-width="2" stroke-linecap="round" stroke-linejoin="round"/>
</svg>
