<svg width="37" height="37" viewBox="0 0 37 37" fill="none" xmlns="http://www.w3.org/2000/svg">
<path d="M3.16064 3.1604H6.24398L10.3448 22.3079C10.4952 23.0091 10.8854 23.636 11.4482 24.0806C12.011 24.5252 12.7111 24.7597 13.4281 24.7437H28.5056C29.2074 24.7426 29.8877 24.5021 30.4343 24.0621C30.9809 23.622 31.361 23.0086 31.5119 22.3233L34.0556 10.8687H7.89356M13.8752 32.375C13.8752 33.2264 13.185 33.9167 12.3336 33.9167C11.4821 33.9167 10.7919 33.2264 10.7919 32.375C10.7919 31.5235 11.4821 30.8333 12.3336 30.8333C13.185 30.8333 13.8752 31.5235 13.8752 32.375ZM30.8336 32.375C30.8336 33.2264 30.1433 33.9167 29.2919 33.9167C28.4405 33.9167 27.7502 33.2264 27.7502 32.375C27.7502 31.5235 28.4405 30.8333 29.2919 30.8333C30.1433 30.8333 30.8336 31.5235 30.8336 32.375Z" stroke="currentColor" stroke-width="2" stroke-linecap="round" stroke-linejoin="round"/>
</svg>
